P2
# Simple 5x5 test image
5 5
255
0   0   0   0   0
0   255 255 255 0
0   255 255 255 0
0   255 255 255 0
0   0   0   0   0
